<?xml version="1.0" encoding="UTF-8"?>
  
<!DOCTYPE svg PUBLIC "-//W3C//DTD SVG 1.1//EN" "http://www.w3.org/Graphics/SVG/1.1/DTD/svg11.dtd">

<svg version="1.1" width="64" height="64" viewBox="0 0 64 64" xmlns="http://www.w3.org/2000/svg">
  <desc>UBC Data Science Club Logo (Black and White)</desc>

  <path
    d="M 32.107839,11.67742 A 15.982583,16.350597 0 0 0 16.125256,28.028016 15.982583,16.350597 0 0 0 17.725784,35.11463 L 12.31123,38.723258
    A 5.8118482,5.9456718 1.1389981e-5 0 0 8.2957198,37.071361 5.8118482,5.9456718 1.1389981e-5 0 0 2.4838717,43.017032 5.8118482,5.9456718
    1.1389981e-5 0 0 8.29572,48.962704 5.8118482,5.9456718 1.1389981e-5 0 0 14.107568,43.017031 5.8118482,5.9456718 1.1389981e-5 0 0 13.732994,40.926754
    l 5.309554,-3.538953 a 15.982583,16.350597 0 0 0 13.065308,6.990809 15.982583,16.350597 0 0 0 11.487481,-5.039884 l 4.191455,3.727657 a
    7.4320896,7.2648102 89.999983 0 0 -1.015939,3.759592 7.4320896,7.2648102 89.999983 0 0 7.264811,7.432091 7.4320896,7.2648102 89.999983 0 0
    7.264811,-7.432091 7.4320896,7.2648102 89.999983 0 0 -7.264811,-7.43209 7.4320896,7.2648102 89.999983 0 0 -4.25105,1.428355 l -4.313498,-3.840878
    a 15.982583,16.350597 0 0 0 2.619305,-8.953345 15.982583,16.350597 0 0 0 -0.439862,-3.791527 l 5.635903,-0.995785 a 4.3588862,4.4592538 0 0 0
    3.870783,2.429945 4.3588862,4.4592538 0 0 0 4.358886,-4.459253 4.3588862,4.4592538 0 0 0 -4.358886,-4.459254 4.3588862,4.4592538 0 0 0
    -4.358886,4.459254 4.3588862,4.4592538 0 0 0 0.0227,0.351282 l -5.650092,0.998688 A 15.982583,16.350597 0 0 0 32.107839,11.67742 Z"
  />
</svg>
