<?xml version="1.0" encoding="UTF-8"?>
  
<!DOCTYPE svg PUBLIC "-//W3C//DTD SVG 1.1//EN" "http://www.w3.org/Graphics/SVG/1.1/DTD/svg11.dtd">

<svg version="1.1" width="64" height="64" viewBox="0 0 64 64" xmlns="http://www.w3.org/2000/svg">
  <desc>UBC Data Science Club Logo (Coloured)</desc>

  <defs>
    <linearGradient id="linearGradient908" x1="22.101223" y1="40.639248" x2="62.000004" y2="1.9764732" gradientUnits="userSpaceOnUse">
      <stop style="stop-color:#0ae682;stop-opacity:1;" offset="0" />
      <stop style="stop-color:#4edfe6;stop-opacity:1;" offset="1" />
    </linearGradient>
  </defs>

  <g transform="matrix(1.0333333,0,0,1.0333333,-1.0666668,-1.0666666)">
    <circle style="fill:#000000;stroke-width:1.18245" cx="32" cy="32" r="29.75" />
    <path
      style="fill:url(#linearGradient908);fill-opacity:1;stroke-width:1.19238"
      d="M 32.000001,2 A 30,30 0 0 0 2.0000002,32.000001 30,30 0 0 0 32.000001,62.000002 30,30 0 0 0 62.000002,32.000001 30,30 0 0 0 32.000001,2
      Z m 0,0.249496 A 29.75,29.75 0 0 1 61.750506,32.000001 29.75,29.75 0 0 1 32.000001,61.750506 29.75,29.75 0 0 1 2.2494962,32.000001 29.75,29.75
      0 0 1 32.000001,2.249496 Z m -0.500882,17.251135 a 11,11 0 0 0 -10.998614,10.998614 11,11 0 0 0 1.10194,4.768775 l -3.727318,2.426916 a 4,4.0000001
      16.156846 0 0 -2.763357,-1.111392 4,4.0000001 16.156846 0 0 -4.001386,3.999497 4,4.0000001 16.156846 0 0 4.001386,4.001386 4,4.0000001 16.156846 0 0
      3.999496,-4.001386 4,4.0000001 16.156846 0 0 -0.257057,-1.40625 l 3.653604,-2.379663 a 11,11 0 0 0 8.991306,4.702621 11,11 0 0 0 7.906376,-3.390877 l
      2.886215,2.508191 a 5,5 0 0 0 -0.699345,2.528982 5,5 0 0 0 4.999371,5.00126 5,5 0 0 0 4.99937,-5.00126 5,5 0 0 0 -4.99937,-4.99937 5,5 0 0 0 -2.925908,0.960181
      l -2.96938,-2.583795 a 11,11 0 0 0 1.803175,-6.023816 11,11 0 0 0 -0.302419,-2.549773 l 3.878528,-0.670993 a 3,3 0 0 0 2.665071,1.634954 3,3 0 0 0 2.999622,-2.999622
      3,3 0 0 0 -2.999622,-2.999622 3,3 0 0 0 -3.001512,2.999622 3,3 0 0 0 0.01701,0.236265 l -3.889869,0.672883 A 11,11 0 0 0 31.499119,19.500631 Z"
    />
  </g>
</svg>
