<svg width="133" height="93" viewBox="0 0 133 94" fill="none" xmlns="http://www.w3.org/2000/svg">
<path d="M66.4365 6.28325e-09C56.9302 6.28323e-09 47.8133 3.77352 41.0913 10.4904C34.3694 17.2073 30.593 26.3174 30.593 35.8165C30.6079 41.1947 31.8348 46.5004 34.1824 51.34L22.0394 59.2448C19.6158 56.9251 16.3901 55.629 13.034 55.6263C9.57718 55.6263 6.26192 56.9985 3.81757 59.441C1.37322 61.8835 4.96413e-07 65.1962 0 68.6505C-7.30698e-08 70.3608 0.337134 72.0545 0.992154 73.6346C1.64717 75.2148 2.60725 76.6506 3.81757 77.86C5.02789 79.0694 6.46475 80.0287 8.04611 80.6833C9.62747 81.3378 11.3224 81.6747 13.034 81.6747C14.7457 81.6747 16.4405 81.3378 18.0219 80.6833C19.6033 80.0287 21.0401 79.0694 22.2504 77.86C23.4608 76.6506 24.4208 75.2148 25.0759 73.6346C25.7309 72.0545 26.068 70.3608 26.068 68.6505C26.0655 67.0862 25.7809 65.5351 25.228 64.0716L37.1355 56.3195C40.4303 61.0352 44.8131 64.8888 49.9132 67.5543C55.0134 70.2198 60.681 71.6188 66.4366 71.6331C71.2528 71.6168 76.0163 70.6308 80.4427 68.734C84.869 66.8371 88.8674 64.0684 92.1991 60.593L101.599 68.7586C100.119 71.2521 99.3328 74.0952 99.3207 76.9941C99.3207 79.132 99.7421 81.2491 100.561 83.2243C101.38 85.1995 102.58 86.9942 104.093 88.506C105.606 90.0177 107.402 91.2169 109.378 92.0351C111.355 92.8532 113.474 93.2743 115.613 93.2743C117.753 93.2743 119.871 92.8532 121.848 92.0351C123.825 91.2169 125.621 90.0177 127.134 88.506C128.647 86.9942 129.847 85.1995 130.666 83.2243C131.484 81.2491 131.906 79.132 131.906 76.9941C131.906 74.8561 131.484 72.7391 130.666 70.7639C129.847 68.7887 128.647 66.994 127.134 65.4822C125.621 63.9705 123.825 62.7713 121.848 61.9531C119.871 61.1349 117.753 60.7139 115.613 60.7139C112.185 60.7286 108.849 61.8235 106.08 63.8427L96.4058 55.4291C100.232 49.6019 102.273 42.7859 102.28 35.8165C102.277 33.0191 101.946 30.2316 101.294 27.5111L113.933 25.3298C114.751 26.9285 115.993 28.2711 117.525 29.2101C119.056 30.1492 120.817 30.6483 122.614 30.6526C125.206 30.6526 127.693 29.6235 129.526 27.7916C131.359 25.9597 132.389 23.4752 132.389 20.8845C132.389 18.2938 131.359 15.8093 129.526 13.9774C127.693 12.1455 125.206 11.1164 122.614 11.1164C120.021 11.1164 117.535 12.1455 115.702 13.9774C113.868 15.8093 112.838 18.2938 112.838 20.8845C112.845 21.1416 112.862 21.3983 112.889 21.654L100.218 23.8417C97.742 16.8673 93.1647 10.8305 87.1156 6.56123C81.0664 2.29198 73.8424 -0.000138571 66.4365 6.28325e-09Z" fill="url(#paint0_linear_715_10)"/>
<defs>
<linearGradient id="paint0_linear_715_10" x1="-15.7319" y1="79.876" x2="152.963" y2="-2.61212" gradientUnits="userSpaceOnUse">
<stop stopColor="#3FFF5D"/>
<stop offset="1" stopColor="#3FFF97"/>
</linearGradient>
</defs>
</svg>
