<?xml version="1.0" encoding="UTF-8"?>
<svg width="16" height="16" version="1.1" viewBox="0 0 16 16" xml:space="preserve" xmlns="http://www.w3.org/2000/svg">
    <title>
        UBC Data Science Club - Simple Logo
    </title>
    <desc>
        Simple logo for UBC Data Science Club
    </desc>
    
    <g transform="matrix(.13223 0 0 .13223 -.14692 18.783)">
        <g transform="translate(1.5626,-139.34)">
            <path d="m-0.45149 104.29v-14h28v28h-28zm31 0v-14h28v28h-28zm31 0v-14h28v28h-28zm31 0v-14h28v28h-28zm-93-31v-14h28v28h-28zm31 0v-14h28v28h-28zm31 0v-14h28v28h-28zm-62-31v-14h28v28h-28zm31 0v-14h28v28h-28zm-31-31v-14h28v28h-28z" fill="#00f986"/>
            <path d="m-0.45149 104.29v-14h28v28h-28zm31 0v-14h28v28h-28zm31 0v-14h28v28h-28zm-62-31v-14h28v28h-28zm31 0v-14h28v28h-28zm31 0v-14h28v28h-28zm-62-31v-14h28v28h-28zm31 0v-14h28v28h-28zm-31-31v-14h28v28h-28z" fill="#00e07a"/>
            <path d="m-0.45149 104.29v-14h28v28h-28zm31 0v-14h28v28h-28zm-31-31v-14h28v28h-28zm31 0v-14h28v28h-28zm-31-31v-14h28v28h-28zm31 0v-14h28v28h-28zm-31-31v-14h28v28h-28z" fill="#00b663"/>
            <path d="m-0.45149 104.29v-14h28v28h-28zm31 0v-14h7v28h-7zm-31-31v-14h28v28h-28zm31 0v-14h7v28h-7zm-31-31v-14h28v28h-28zm31 0v-14h7v28h-7zm-31-31v-14h28v28h-28z" fill="#00b562"/>
            <path d="m-0.45149 104.29v-14h28v28h-28zm0-31v-14h28v28h-28zm0-31v-14h28v28h-28zm0-31v-14h28v28h-28z" fill="#00a258"/>
        </g>
    </g>
</svg>
